<svg xmlns="http://www.w3.org/2000/svg" width="959.351" height="897.556">
   <path fill="#632456" d="M589 895.217c-3.025-1.287-8.2-4.098-11.5-6.248-13.613-6.768-21.528-21.548-28.804-33.761-4.091-6.731-15.653-28.437-25.693-48.237-25.633-50.547-45.353-89.198-51.786-101.5-3.02-5.775-13.913-27.15-24.207-47.5-34.978-69.146-38.978-76.432-44.9-81.782-4.664-4.214-9.447-5.408-14.795-3.694-2.098.672-12.14 4.829-22.315 9.236-106.116 45.965-169.601 62.608-269.5 70.65-29.269 2.356-49.686 3.449-65 3.48-6.51.827-11.113-.033-16.757-2.76-3.166-1.53-6.917-4.303-8.334-6.161-3.028-3.97-5.409-11.25-5.409-16.539 0-9.436 6.654-22.512 16.5-32.427 7.611-7.664 12.604-11.358 29.75-22.004 38.01-23.877 64.027-38.099 79.75-47.54 5.775-3.464 11.4-7.078 12.5-8.031 1.1-.953 4.7-3.179 8-4.946s6.225-3.5 6.5-3.849c.275-.35 1.85-1.305 3.5-2.122s5.947-3.343 9.548-5.613c3.602-2.269 11.252-6.972 17-10.449 5.748-3.478 14.421-8.939 19.273-12.136 4.851-3.197 9.017-5.813 9.256-5.813.501 0 24.673-16.03 28.423-18.849 1.375-1.034 5.875-4.299 10-7.256 9.646-6.916 9.999-7.273 14.219-14.395 5.67-9.569 8.359-15.411 11.276-24.5 2.662-5.622 2.758-10.958 2.832-17 .856-5.595-.225-9.174-2.584-14-2.907-5.947-5.839-8.951-52.743-54.031-14.575-14.008-32.575-31.334-40-38.502-13.3-12.84-29.453-28.408-54-52.047-6.875-6.621-17.675-16.946-24-22.946-6.325-6-14.518-13.957-18.206-17.682-12.012-12.132-19.788-25.817-21.885-38.514-1.551-4.84-.732-8.42.475-13.131 4.855-18.951 22.013-27.154 47.53-22.725 14.284 2.48 20.443 4.846 66.586 25.584 2.2.989 11.2 5.042 20 9.007 19.349 8.719 24.888 11.195 34 15.201 3.85 1.693 12.175 5.444 18.5 8.336 6.325 2.892 18.7 8.488 27.5 12.435 8.8 3.947 19.825 8.903 24.5 11.014 38.719 17.483 97.679 43.705 112.5 50.034 5.368 3.078 10.04 4.271 16 4.291 13.899-1.093 15.38-4.335 23.822-10.967 3.398-2.653 7.077-5.956 8.175-7.341 1.099-1.385 2.907-3.418 4.019-4.518 1.112-1.1 3.345-3.8 4.962-6 1.617-2.2 3.444-4.45 4.059-5 4.016-3.589 37.426-44.034 67.323-81.5 11.631-14.575 22.485-28.102 24.122-30.06 5.723-6.848 14.137-17.503 19.693-24.94 5.729-9.702 15.118-18.636 20.898-26.759.986-1.508 3.513-4.578 5.615-6.824 2.102-2.245 5.866-6.745 8.365-10 2.499-3.255 5.094-6.593 5.768-7.418.674-.825 3.572-4.425 6.44-8 9.073-11.308 18.114-17.994 31.763-23.492 7.821-3.646 20.147-2.687 27.054.699 5.148 2.737 10.025 7.702 12.784 13.67 2.922 4.838 2.747 10.38 3.328 15.86.204 10.667-3.49 19.892-6.962 29.763-3.095 8.8-7.035 19.825-8.755 24.5-5.276 14.341-49.487 147.435-54.976 165.5-13.394 44.081-16.804 57.225-18.552 71.5-.842 6.875-1.959 14.075-2.483 16-2.732 10.04-.341 12.502 16.784 17.279 30.418 8.486 53.384 14.832 61.753 17.063 4.95 1.32 19.575 5.347 32.5 8.95 30.389 8.471 69.154 19.066 85 23.231 6.875 1.807 19.925 5.365 29 7.906 9.075 2.541 23.925 6.662 33 9.157 50.027 13.755 49.429 13.543 59 20.959 11.775 9.124 20.561 19.005 21.678 30.337l.663 6.717c-1.008 6.965-1.223 11.052-5.806 16.15-4.953 5.509-11.358 9.289-21.7 12.806-10.465 3.559-20.451 5.132-46.835 7.374-63.691 5.413-88.942 6.806-114 6.288-9.625-.199-47.2-.515-83.5-.703-36.3-.188-61.551-1.816-68.151-2.383-8.445-1.912-25.31-.445-33.46 2.793-10.037 7.296-16.42 16.004-16.889 25.851 0 3.05 3.539 16.021 10.416 38.172 5.729 18.454 12.97 42.327 16.091 53.052 3.122 10.725 7.038 23.999 8.703 29.498 3.964 13.087 16.93 65.56 20.139 81.502 4.35 21.609 6.971 44.372 8.232 71.5.332 7.15 1.237 15.54 2.011 18.644.774 3.104 1.402 9.404 1.395 14-.026 18.033-6.031 28.952-19.945 36.264-7.675 4.949-18.468 5.382-26.043 2.338z"/>
</svg>